<svg fill="#fff" xmlns="http://www.w3.org/2000/svg" viewBox="0 0 512 512">
    <path d="m24.848 360c-13.318 0-20.048-16.165-10.606-25.607 16.513-16.513 25.606-38.469 25.606-61.823 0 0 .051-17.793.053-17.884 2.866-137.196 113.609-254.686 254.957-254.686 82.168 0 157.067 39.369 204.325 102.6 4.728 6.324 3.742 15.23-2.253 20.369l-22.82 19.56c-18.115 15.533-44.612 14.19-61.637-3.122-30.312-30.82-71.668-49.407-117.615-49.407-88.429 0-162.411 74.102-165.01 165.218-.121 57.795-47.177 104.782-105 104.782z"></path>
    <path d="m414.848 512h-11.83c-53.297 0-94.023-22.773-132.051-73.841-5.89-7.916-13.934-13.516-23.04-16.252-7.686 33.242-37.534 58.093-73.079 58.093-41.355 0-75-33.645-75-75 0-8.284 6.716-15 15-15 24.813 0 45-20.187 45-45 0 0 .041-88.857.125-90.689 2.791-69.81 55.094-127.319 121.657-133.683 80.72-7.683 148.218 55.754 148.218 134.372v30c0 8.284-6.716 15-15 15h-72.43c6.19 17.461 22.873 30 42.43 30h30c8.284 0 15 6.716 15 15v152c0 8.284-6.716 15-15 15z"></path>
</svg>