<svg xmlns="http://www.w3.org/2000/svg" width="2133.333" height="2133.333" preserveAspectRatio="xMidYMid meet" version="1.0" viewBox="0 0 1600 1600"><metadata>Created by potrace 1.14, written by Peter Selinger 2001-2017</metadata><g fill="#000" stroke="none"><path d="M8898 15995 c-2 -1 -59 -5 -128 -9 -223 -11 -357 -24 -640 -61 -241 -32 -542 -92 -900 -181 -55 -13 -209 -56 -230 -64 -14 -5 -79 -25 -145 -46 -220 -68 -531 -184 -720 -269 -17 -8 -53 -23 -80 -35 -244 -104 -606 -294 -885 -463 -172 -105 -488 -316 -575 -384 -16 -13 -35 -27 -40 -31 -70 -51 -111 -83 -235 -181 -80 -63 -147 -118 -150 -121 -3 -3 -36 -32 -75 -65 -120 -102 -285 -256 -424 -396 -130 -130 -244 -250 -336 -353 -38 -44 -74 -84 -80 -90 -38 -41 -125 -148 -199 -241 -48 -60 -92 -117 -99 -125 -25 -30 -155 -207 -224 -305 -437 -621 -819 -1376 -1061 -2102 -43 -128 -135 -431 -148 -488 -1 -5 -13 -55 -28 -110 -44 -172 -111 -482 -130 -605 -3 -14 -8 -45 -11 -70 -4 -25 -8 -52 -10 -60 -1 -8 -6 -37 -9 -63 -4 -27 -9 -56 -11 -65 -1 -10 -6 -42 -9 -73 -4 -31 -9 -66 -11 -78 -2 -12 -7 -57 -11 -99 -3 -42 -8 -85 -10 -95 -2 -10 -6 -58 -9 -105 -4 -48 -8 -103 -10 -122 -9 -95 -17 -386 -20 -746 -4 -400 -6 -445 -26 -584 -16 -112 -18 -127 -40 -225 -107 -485 -346 -929 -699 -1298 -36 -38 -79 -90 -97 -116 -100 -148 -99 -351 2 -506 68 -104 173 -177 296 -205 53 -12 270 -10 399 4 25 3 70 8 100 11 30 3 62 8 70 10 8 2 38 6 65 10 28 3 70 11 95 16 25 6 55 13 68 15 421 81 952 330 1305 612 23 18 51 40 62 49 328 261 640 644 842 1033 109 211 231 528 269 700 7 34 9 42 17 65 3 11 8 32 11 48 3 15 10 55 17 90 6 34 13 71 14 82 2 11 6 39 9 63 20 143 26 212 31 357 6 198 16 386 20 415 2 14 7 54 11 90 16 160 22 200 50 360 14 80 28 159 31 175 17 99 104 420 163 595 127 382 301 762 499 1090 301 498 693 957 1131 1326 113 95 215 175 290 229 30 22 57 42 60 45 13 14 277 184 389 250 112 65 385 206 501 258 115 51 359 144 490 187 137 44 409 118 482 130 18 3 49 10 68 15 19 5 51 12 70 15 19 3 60 10 90 15 60 10 84 13 205 29 181 24 371 35 610 35 188 0 417 -9 485 -19 14 -2 54 -6 90 -9 36 -4 75 -8 85 -10 11 -2 43 -7 70 -10 825 -115 1631 -443 2304 -939 227 -167 371 -291 611 -524 63 -61 133 -126 155 -143 22 -17 47 -36 55 -43 36 -30 172 -109 250 -146 107 -50 225 -89 315 -105 17 -3 41 -9 55 -12 55 -14 365 -12 445 2 213 38 430 131 592 253 51 38 170 136 265 217 95 82 184 159 198 170 14 12 66 57 115 99 50 43 108 93 130 112 173 147 220 213 251 357 19 83 -6 224 -54 306 -22 39 -151 212 -203 275 -10 11 -56 67 -104 125 -48 58 -95 114 -106 125 -10 11 -42 47 -71 80 -164 185 -521 540 -672 667 -45 37 -129 109 -166 142 -63 55 -358 285 -420 326 -12 8 -34 24 -48 35 -15 11 -43 31 -63 45 -157 106 -277 186 -291 195 -538 327 -909 517 -1333 681 -49 20 -117 46 -150 59 -230 89 -794 262 -948 289 -15 3 -35 7 -45 10 -37 12 -314 69 -396 82 -21 3 -48 8 -60 10 -11 2 -52 9 -91 15 -38 6 -81 12 -95 15 -102 17 -384 48 -530 59 -47 3 -107 8 -135 11 -55 5 -801 14 -807 9z" transform="translate(0.000000,1600.000000) scale(0.100000,-0.100000)"/><path d="M8959 12245 c-2 -1 -42 -6 -89 -9 -47 -3 -94 -8 -105 -10 -11 -2 -51 -7 -90 -11 -55 -5 -249 -37 -300 -49 -5 -1 -37 -8 -70 -15 -168 -35 -437 -119 -620 -193 -185 -75 -512 -241 -622 -315 -15 -11 -68 -46 -118 -78 -154 -99 -324 -231 -489 -380 -611 -550 -1055 -1264 -1285 -2070 -43 -148 -88 -342 -106 -455 -3 -19 -8 -48 -11 -65 -4 -16 -8 -43 -10 -60 -1 -16 -5 -43 -8 -60 -3 -16 -8 -61 -12 -100 -3 -38 -8 -73 -10 -76 -11 -20 -17 -494 -19 -1769 -2 -800 -6 -1466 -8 -1480 -3 -14 -8 -42 -11 -62 -37 -248 -179 -535 -358 -726 -68 -73 -181 -168 -258 -218 -69 -45 -220 -125 -220 -118 0 3 -14 -3 -31 -12 -25 -13 -211 -73 -229 -74 -3 0 -18 -2 -35 -5 -78 -12 -108 -15 -220 -21 -185 -9 -284 -50 -382 -158 -98 -108 -128 -208 -119 -405 3 -75 8 -154 11 -176 64 -472 227 -856 513 -1210 60 -74 246 -264 303 -310 128 -103 180 -140 304 -216 288 -177 616 -287 970 -327 124 -14 557 -4 585 13 3 2 26 6 50 10 138 19 359 84 523 154 328 140 643 372 862 635 22 26 51 60 64 74 26 31 158 227 192 287 27 48 88 171 119 240 30 67 120 339 120 365 0 11 7 20 15 20 28 0 174 -61 262 -109 196 -109 323 -227 518 -481 343 -448 632 -760 1025 -1107 39 -34 176 -144 275 -221 373 -287 937 -575 1365 -697 239 -68 498 -124 700 -150 25 -3 56 -8 70 -10 14 -2 66 -7 115 -11 50 -3 104 -8 120 -11 17 -2 200 -7 408 -10 392 -6 453 -2 537 36 145 65 237 182 277 351 6 26 4 4883 -2 4913 -38 186 -185 337 -367 375 -26 5 -284 10 -590 11 -299 0 -559 3 -578 5 -248 28 -461 107 -670 249 -96 66 -281 251 -346 347 -56 81 -120 199 -148 270 -10 25 -20 50 -22 55 -3 7 382 10 1148 10 824 0 1167 3 1207 11 171 35 319 177 360 346 10 45 17 1229 7 1303 -2 17 -7 71 -11 122 -3 50 -7 100 -9 110 -2 10 -7 41 -10 68 -6 44 -29 191 -42 266 -10 58 -74 311 -103 406 -100 332 -271 707 -458 1003 -54 86 -107 168 -118 183 -193 264 -305 397 -500 590 -539 537 -1262 938 -1985 1103 -36 8 -74 17 -85 20 -11 3 -69 14 -130 25 -100 18 -126 22 -205 34 -14 2 -56 7 -95 11 -38 3 -86 8 -105 11 -43 5 -607 13 -611 8z" transform="translate(0.000000,1600.000000) scale(0.100000,-0.100000)"/></g></svg>